<svg width="21" height="20" viewBox="0 0 21 20" fill="none" xmlns="http://www.w3.org/2000/svg">
<path opacity="0.12" d="M2.16669 10C2.16669 14.6023 5.89765 18.3333 10.5 18.3333C11.8808 18.3333 13 17.2141 13 15.8333V15.4167C13 15.0297 13 14.8362 13.0214 14.6737C13.1691 13.5518 14.0519 12.6691 15.1737 12.5214C15.3362 12.5 15.5297 12.5 15.9167 12.5H16.3334C17.7141 12.5 18.8334 11.3807 18.8334 10C18.8334 5.39763 15.1024 1.66667 10.5 1.66667C5.89765 1.66667 2.16669 5.39763 2.16669 10Z" fill="url(#paint0_linear_220_726)"/>
<path d="M2.16669 10C2.16669 14.6023 5.89765 18.3333 10.5 18.3333C11.8808 18.3333 13 17.2141 13 15.8333V15.4167C13 15.0297 13 14.8362 13.0214 14.6737C13.1691 13.5518 14.0519 12.6691 15.1737 12.5214C15.3362 12.5 15.5297 12.5 15.9167 12.5H16.3334C17.7141 12.5 18.8334 11.3808 18.8334 10C18.8334 5.39763 15.1024 1.66667 10.5 1.66667C5.89765 1.66667 2.16669 5.39763 2.16669 10Z" stroke="url(#paint1_linear_220_726)" stroke-width="1.66667" stroke-linecap="round" stroke-linejoin="round"/>
<path d="M6.33333 10.8333C6.79357 10.8333 7.16667 10.4603 7.16667 10C7.16667 9.53975 6.79357 9.16667 6.33333 9.16667C5.8731 9.16667 5.5 9.53975 5.5 10C5.5 10.4603 5.8731 10.8333 6.33333 10.8333Z" stroke="url(#paint2_linear_220_726)" stroke-width="1.66667" stroke-linecap="round" stroke-linejoin="round"/>
<path d="M13.8333 7.5C14.2936 7.5 14.6667 7.1269 14.6667 6.66667C14.6667 6.20643 14.2936 5.83333 13.8333 5.83333C13.3731 5.83333 13 6.20643 13 6.66667C13 7.1269 13.3731 7.5 13.8333 7.5Z" stroke="url(#paint3_linear_220_726)" stroke-width="1.66667" stroke-linecap="round" stroke-linejoin="round"/>
<path d="M8.83333 6.66667C9.29358 6.66667 9.66667 6.29357 9.66667 5.83333C9.66667 5.3731 9.29358 5 8.83333 5C8.3731 5 8 5.3731 8 5.83333C8 6.29357 8.3731 6.66667 8.83333 6.66667Z" stroke="url(#paint4_linear_220_726)" stroke-width="1.66667" stroke-linecap="round" stroke-linejoin="round"/>
<defs>
<linearGradient id="paint0_linear_220_726" x1="2.16669" y1="1.66667" x2="21.7341" y2="6.43848" gradientUnits="userSpaceOnUse">
<stop stop-color="#DABD55"/>
<stop offset="1" stop-color="#F78533"/>
</linearGradient>
<linearGradient id="paint1_linear_220_726" x1="2.16669" y1="1.66667" x2="21.7341" y2="6.43848" gradientUnits="userSpaceOnUse">
<stop stop-color="#DABD55"/>
<stop offset="1" stop-color="#F78533"/>
</linearGradient>
<linearGradient id="paint2_linear_220_726" x1="5.5" y1="9.16667" x2="7.45674" y2="9.64385" gradientUnits="userSpaceOnUse">
<stop stop-color="#DABD55"/>
<stop offset="1" stop-color="#F78533"/>
</linearGradient>
<linearGradient id="paint3_linear_220_726" x1="13" y1="5.83333" x2="14.9567" y2="6.31052" gradientUnits="userSpaceOnUse">
<stop stop-color="#DABD55"/>
<stop offset="1" stop-color="#F78533"/>
</linearGradient>
<linearGradient id="paint4_linear_220_726" x1="8" y1="5" x2="9.95674" y2="5.47718" gradientUnits="userSpaceOnUse">
<stop stop-color="#DABD55"/>
<stop offset="1" stop-color="#F78533"/>
</linearGradient>
</defs>
</svg>
