<svg width="21" height="20" viewBox="0 0 21 20" fill="none" xmlns="http://www.w3.org/2000/svg">
<path fill-rule="evenodd" clip-rule="evenodd" d="M14.0774 5.24426C14.4029 4.91882 14.9305 4.91882 15.2559 5.24426L19.4226 9.41092C19.748 9.73634 19.748 10.264 19.4226 10.5894L15.2559 14.7561C14.9305 15.0815 14.4029 15.0815 14.0774 14.7561C13.752 14.4307 13.752 13.903 14.0774 13.5776L17.6549 10.0002L14.0774 6.42277C13.752 6.09734 13.752 5.5697 14.0774 5.24426Z" fill="#D0BED8"/>
<path fill-rule="evenodd" clip-rule="evenodd" d="M6.92257 5.24426C7.24801 5.5697 7.24801 6.09734 6.92257 6.42277L3.34516 10.0002L6.92257 13.5776C7.24801 13.903 7.24801 14.4307 6.92257 14.7561C6.59713 15.0815 6.0695 15.0815 5.74406 14.7561L1.57739 10.5894C1.25195 10.264 1.25195 9.73634 1.57739 9.41092L5.74406 5.24426C6.0695 4.91882 6.59713 4.91882 6.92257 5.24426Z" fill="#D0BED8"/>
<path fill-rule="evenodd" clip-rule="evenodd" d="M12.3474 1.68671C12.7967 1.78654 13.08 2.23169 12.9802 2.68097L9.64683 17.6809C9.547 18.1303 9.10183 18.4135 8.65256 18.3137C8.20328 18.2139 7.92 17.7687 8.01984 17.3194L11.3532 2.31942C11.453 1.87014 11.8982 1.58687 12.3474 1.68671Z" fill="#D0BED8"/>
</svg>
