<svg width="21" height="20" viewBox="0 0 21 20" fill="none" xmlns="http://www.w3.org/2000/svg">
<path opacity="0.12" d="M2.16669 10C2.16669 14.6024 5.89765 18.3334 10.5 18.3334C11.8808 18.3334 13 17.2141 13 15.8334V15.4167C13 15.0297 13 14.8362 13.0214 14.6737C13.1691 13.5519 14.0519 12.6691 15.1737 12.5214C15.3362 12.5 15.5297 12.5 15.9167 12.5H16.3334C17.7141 12.5 18.8334 11.3808 18.8334 10C18.8334 5.39765 15.1024 1.66669 10.5 1.66669C5.89765 1.66669 2.16669 5.39765 2.16669 10Z" fill="#D0BED8"/>
<path d="M2.16669 10C2.16669 14.6024 5.89765 18.3334 10.5 18.3334C11.8808 18.3334 13 17.2141 13 15.8334V15.4167C13 15.0297 13 14.8362 13.0214 14.6737C13.1691 13.5519 14.0519 12.6691 15.1737 12.5214C15.3362 12.5 15.5297 12.5 15.9167 12.5H16.3334C17.7141 12.5 18.8334 11.3808 18.8334 10C18.8334 5.39765 15.1024 1.66669 10.5 1.66669C5.89765 1.66669 2.16669 5.39765 2.16669 10Z" stroke="#D0BED8" stroke-width="1.66667" stroke-linecap="round" stroke-linejoin="round"/>
<path d="M6.33333 10.8334C6.79357 10.8334 7.16667 10.4603 7.16667 10C7.16667 9.53977 6.79357 9.16669 6.33333 9.16669C5.8731 9.16669 5.5 9.53977 5.5 10C5.5 10.4603 5.8731 10.8334 6.33333 10.8334Z" stroke="#D0BED8" stroke-width="1.66667" stroke-linecap="round" stroke-linejoin="round"/>
<path d="M13.8333 7.49998C14.2936 7.49998 14.6667 7.12688 14.6667 6.66665C14.6667 6.20641 14.2936 5.83331 13.8333 5.83331C13.3731 5.83331 13 6.20641 13 6.66665C13 7.12688 13.3731 7.49998 13.8333 7.49998Z" stroke="#D0BED8" stroke-width="1.66667" stroke-linecap="round" stroke-linejoin="round"/>
<path d="M8.83333 6.66667C9.29358 6.66667 9.66667 6.29357 9.66667 5.83333C9.66667 5.3731 9.29358 5 8.83333 5C8.3731 5 8 5.3731 8 5.83333C8 6.29357 8.3731 6.66667 8.83333 6.66667Z" stroke="#D0BED8" stroke-width="1.66667" stroke-linecap="round" stroke-linejoin="round"/>
</svg>
