<svg width="21" height="20" viewBox="0 0 21 20" fill="none" xmlns="http://www.w3.org/2000/svg">
<path opacity="0.12" d="M8 17.5V10H13V17.5" fill="#D0BED8"/>
<path d="M7.99999 17.5V11.3333C7.99999 10.8666 7.99999 10.6332 8.09082 10.455C8.17071 10.2982 8.2982 10.1707 8.455 10.0908C8.63326 10 8.86666 10 9.33332 10H11.6667C12.1334 10 12.3667 10 12.545 10.0908C12.7018 10.1707 12.8292 10.2982 12.9092 10.455C13 10.6332 13 10.8666 13 11.3333V17.5M2.16666 7.91667L9.69999 2.26667C9.98691 2.05151 10.1303 1.94392 10.2878 1.90245C10.4269 1.86585 10.5731 1.86585 10.7122 1.90246C10.8697 1.94392 11.0131 2.05151 11.3 2.26667L18.8333 7.91667M3.83332 6.66667V14.8333C3.83332 15.7667 3.83332 16.2335 4.01498 16.59C4.17477 16.9036 4.42974 17.1586 4.74334 17.3183C5.09986 17.5 5.56657 17.5 6.49999 17.5H14.5C15.4334 17.5 15.9002 17.5 16.2567 17.3183C16.5702 17.1586 16.8252 16.9036 16.985 16.59C17.1667 16.2335 17.1667 15.7667 17.1667 14.8333V6.66667L12.1 2.86667C11.5262 2.43634 11.2393 2.22118 10.9242 2.13824C10.6462 2.06503 10.3538 2.06503 10.0757 2.13824C9.76066 2.22118 9.47374 2.43634 8.89999 2.86667L3.83332 6.66667Z" stroke="#D0BED8" stroke-width="1.5" stroke-linecap="round" stroke-linejoin="round"/>
</svg>
