<svg width="16" height="16" viewBox="0 0 16 16" fill="none" xmlns="http://www.w3.org/2000/svg">
<g clip-path="url(#clip0_147_1498)">
<path d="M13.3335 1.99996H12.6668V1.33329C12.6668 0.966626 12.3668 0.666626 12.0002 0.666626C11.6335 0.666626 11.3335 0.966626 11.3335 1.33329V1.99996H4.66683V1.33329C4.66683 0.966626 4.36683 0.666626 4.00016 0.666626C3.6335 0.666626 3.3335 0.966626 3.3335 1.33329V1.99996H2.66683C1.9335 1.99996 1.3335 2.59996 1.3335 3.33329V14C1.3335 14.7333 1.9335 15.3333 2.66683 15.3333H13.3335C14.0668 15.3333 14.6668 14.7333 14.6668 14V3.33329C14.6668 2.59996 14.0668 1.99996 13.3335 1.99996ZM12.6668 14H3.3335C2.96683 14 2.66683 13.7 2.66683 13.3333V5.33329H13.3335V13.3333C13.3335 13.7 13.0335 14 12.6668 14Z" fill="#A58EAD"/>
</g>
<defs>
<clipPath id="clip0_147_1498">
<rect width="16" height="16" fill="white"/>
</clipPath>
</defs>
</svg>
