<svg width="16" height="16" viewBox="0 0 16 16" fill="none" xmlns="http://www.w3.org/2000/svg">
<g clip-path="url(#clip0_147_1484)">
<path d="M11.3335 4.66663H9.3335C8.96683 4.66663 8.66683 4.96663 8.66683 5.33329C8.66683 5.69996 8.96683 5.99996 9.3335 5.99996H11.3335C12.4335 5.99996 13.3335 6.89996 13.3335 7.99996C13.3335 9.09996 12.4335 9.99996 11.3335 9.99996H9.3335C8.96683 9.99996 8.66683 10.3 8.66683 10.6666C8.66683 11.0333 8.96683 11.3333 9.3335 11.3333H11.3335C13.1735 11.3333 14.6668 9.83996 14.6668 7.99996C14.6668 6.15996 13.1735 4.66663 11.3335 4.66663ZM5.3335 7.99996C5.3335 8.36663 5.6335 8.66663 6.00016 8.66663H10.0002C10.3668 8.66663 10.6668 8.36663 10.6668 7.99996C10.6668 7.63329 10.3668 7.33329 10.0002 7.33329H6.00016C5.6335 7.33329 5.3335 7.63329 5.3335 7.99996ZM6.66683 9.99996H4.66683C3.56683 9.99996 2.66683 9.09996 2.66683 7.99996C2.66683 6.89996 3.56683 5.99996 4.66683 5.99996H6.66683C7.0335 5.99996 7.3335 5.69996 7.3335 5.33329C7.3335 4.96663 7.0335 4.66663 6.66683 4.66663H4.66683C2.82683 4.66663 1.3335 6.15996 1.3335 7.99996C1.3335 9.83996 2.82683 11.3333 4.66683 11.3333H6.66683C7.0335 11.3333 7.3335 11.0333 7.3335 10.6666C7.3335 10.3 7.0335 9.99996 6.66683 9.99996Z" fill="#A58EAD"/>
</g>
<defs>
<clipPath id="clip0_147_1484">
<rect width="16" height="16" fill="white"/>
</clipPath>
</defs>
</svg>
