<svg width="16" height="16" viewBox="0 0 16 16" fill="none" xmlns="http://www.w3.org/2000/svg">
<g clip-path="url(#clip0_147_1478)">
<path d="M11.9998 5.33342H11.3332V4.00008C11.3332 2.16008 9.83984 0.666748 7.99984 0.666748C6.15984 0.666748 4.6665 2.16008 4.6665 4.00008V5.33342H3.99984C3.2665 5.33342 2.6665 5.93341 2.6665 6.66675V13.3334C2.6665 14.0667 3.2665 14.6667 3.99984 14.6667H11.9998C12.7332 14.6667 13.3332 14.0667 13.3332 13.3334V6.66675C13.3332 5.93341 12.7332 5.33342 11.9998 5.33342ZM5.99984 4.00008C5.99984 2.89341 6.89317 2.00008 7.99984 2.00008C9.1065 2.00008 9.99984 2.89341 9.99984 4.00008V5.33342H5.99984V4.00008ZM11.3332 13.3334H4.6665C4.29984 13.3334 3.99984 13.0334 3.99984 12.6667V7.33342C3.99984 6.96675 4.29984 6.66675 4.6665 6.66675H11.3332C11.6998 6.66675 11.9998 6.96675 11.9998 7.33342V12.6667C11.9998 13.0334 11.6998 13.3334 11.3332 13.3334ZM7.99984 11.3334C8.73317 11.3334 9.33317 10.7334 9.33317 10.0001C9.33317 9.26675 8.73317 8.66675 7.99984 8.66675C7.2665 8.66675 6.6665 9.26675 6.6665 10.0001C6.6665 10.7334 7.2665 11.3334 7.99984 11.3334Z" fill="#A58EAD"/>
</g>
<defs>
<clipPath id="clip0_147_1478">
<rect width="16" height="16" fill="white"/>
</clipPath>
</defs>
</svg>
