<svg width="16" height="16" viewBox="0 0 16 16" fill="none" xmlns="http://www.w3.org/2000/svg">
<path d="M8.00016 1.33337C4.32016 1.33337 1.3335 4.32004 1.3335 8.00004C1.3335 11.68 4.32016 14.6667 8.00016 14.6667C11.6802 14.6667 14.6668 11.68 14.6668 8.00004C14.6668 4.32004 11.6802 1.33337 8.00016 1.33337ZM8.00016 13.3334C5.0535 13.3334 2.66683 10.9467 2.66683 8.00004C2.66683 6.76671 3.08683 5.63337 3.7935 4.73337L11.2668 12.2067C10.3668 12.9134 9.2335 13.3334 8.00016 13.3334ZM12.2068 11.2667L4.7335 3.79337C5.6335 3.08671 6.76683 2.66671 8.00016 2.66671C10.9468 2.66671 13.3335 5.05337 13.3335 8.00004C13.3335 9.23337 12.9135 10.3667 12.2068 11.2667Z" fill="#A58EAD"/>
</svg>
