<svg width="16" height="16" viewBox="0 0 16 16" fill="none" xmlns="http://www.w3.org/2000/svg">
<g clip-path="url(#clip0_147_1472)">
<path d="M9.33325 3.99996L8.85325 3.03329C8.73992 2.80663 8.50659 2.66663 8.25325 2.66663H3.99992C3.63325 2.66663 3.33325 2.96663 3.33325 3.33329V13.3333C3.33325 13.7 3.63325 14 3.99992 14C4.36659 14 4.66659 13.7 4.66659 13.3333V9.33329H7.99992L8.47992 10.3C8.59325 10.5266 8.82659 10.6666 9.07325 10.6666H12.6666C13.0333 10.6666 13.3333 10.3666 13.3333 9.99996V4.66663C13.3333 4.29996 13.0333 3.99996 12.6666 3.99996H9.33325ZM11.9999 9.33329H9.33325L8.66659 7.99996H4.66659V3.99996H7.99992L8.66659 5.33329H11.9999V9.33329Z" fill="#A58EAD"/>
</g>
<defs>
<clipPath id="clip0_147_1472">
<rect width="16" height="16" fill="white"/>
</clipPath>
</defs>
</svg>
