<svg width="16" height="16" viewBox="0 0 16 16" fill="none" xmlns="http://www.w3.org/2000/svg">
<path opacity="0.12" d="M2 6.46671C2 5.71997 2 5.3466 2.14533 5.06139C2.27315 4.8105 2.47713 4.60653 2.72801 4.4787C3.01323 4.33337 3.3866 4.33337 4.13333 4.33337H9.53333C10.2801 4.33337 10.6535 4.33337 10.9387 4.4787C11.1895 4.60653 11.3935 4.8105 11.5213 5.06139C11.6667 5.3466 11.6667 5.71997 11.6667 6.46671V11.8667C11.6667 12.6134 11.6667 12.9868 11.5213 13.272C11.3935 13.5229 11.1895 13.7269 10.9387 13.8547C10.6535 14 10.2801 14 9.53333 14H4.13333C3.3866 14 3.01323 14 2.72801 13.8547C2.47713 13.7269 2.27315 13.5229 2.14533 13.272C2 12.9868 2 12.6134 2 11.8667V6.46671Z" fill="url(#paint0_linear_220_216)"/>
<path d="M5 2H9.73333C11.2268 2 11.9735 2 12.544 2.29065C13.0457 2.54631 13.4537 2.95426 13.7093 3.45603C14 4.02646 14 4.77319 14 6.26667V11M4.13333 14H9.53333C10.2801 14 10.6535 14 10.9387 13.8547C11.1895 13.7269 11.3935 13.5229 11.5213 13.272C11.6667 12.9868 11.6667 12.6134 11.6667 11.8667V6.46667C11.6667 5.71993 11.6667 5.34656 11.5213 5.06135C11.3935 4.81046 11.1895 4.60649 10.9387 4.47866C10.6535 4.33333 10.2801 4.33333 9.53333 4.33333H4.13333C3.3866 4.33333 3.01323 4.33333 2.72801 4.47866C2.47713 4.60649 2.27315 4.81046 2.14533 5.06135C2 5.34656 2 5.71993 2 6.46667V11.8667C2 12.6134 2 12.9868 2.14533 13.272C2.27315 13.5229 2.47713 13.7269 2.72801 13.8547C3.01323 14 3.3866 14 4.13333 14Z" stroke="url(#paint1_linear_220_216)" stroke-width="1.33333" stroke-linecap="round" stroke-linejoin="round"/>
<defs>
<linearGradient id="paint0_linear_220_216" x1="6.83333" y1="4.33337" x2="6.83333" y2="14" gradientUnits="userSpaceOnUse">
<stop stop-color="#292556"/>
<stop offset="1" stop-color="#120A24"/>
</linearGradient>
<linearGradient id="paint1_linear_220_216" x1="8" y1="2" x2="8" y2="14" gradientUnits="userSpaceOnUse">
<stop stop-color="#292556"/>
<stop offset="1" stop-color="#120A24"/>
</linearGradient>
</defs>
</svg>
