<svg width="20" height="20" viewBox="0 0 20 20" fill="none" xmlns="http://www.w3.org/2000/svg">
<path opacity="0.12" d="M10 1.66663L17.5 5.83329V14.1666L10 18.3333L2.5 14.1666V5.83329L10 1.66663Z" fill="url(#paint0_linear_161_738)"/>
<path d="M10 6.66677V10.0001M10 13.3335H10.0083M2.5 6.61798V13.3822C2.5 13.6678 2.5 13.8105 2.54207 13.9379C2.57929 14.0505 2.64013 14.154 2.72053 14.2411C2.81141 14.3398 2.93621 14.4091 3.18581 14.5478L9.3525 17.9737C9.58883 18.105 9.707 18.1706 9.83208 18.1964C9.94292 18.2192 10.0571 18.2192 10.1679 18.1964C10.293 18.1706 10.4112 18.105 10.6475 17.9737L16.8142 14.5478C17.0638 14.4091 17.1886 14.3398 17.2795 14.2411C17.3598 14.154 17.4207 14.0505 17.4579 13.9379C17.5 13.8105 17.5 13.6678 17.5 13.3822V6.61798C17.5 6.33245 17.5 6.18967 17.4579 6.06235C17.4207 5.9497 17.3598 5.8463 17.2795 5.75906C17.1886 5.66044 17.0638 5.59111 16.8142 5.45244L10.6475 2.02652C10.4112 1.89522 10.293 1.82957 10.1679 1.80382C10.0571 1.78105 9.94292 1.78105 9.83208 1.80382C9.707 1.82957 9.58883 1.89522 9.3525 2.02652L3.18581 5.45244C2.93621 5.59111 2.81141 5.66044 2.72053 5.75906C2.64013 5.8463 2.57929 5.9497 2.54207 6.06235C2.5 6.18967 2.5 6.33245 2.5 6.61798Z" stroke="url(#paint1_linear_161_738)" stroke-width="1.66667" stroke-linecap="round" stroke-linejoin="round"/>
<defs>
<linearGradient id="paint0_linear_161_738" x1="2.5" y1="1.66663" x2="20.3005" y2="5.57346" gradientUnits="userSpaceOnUse">
<stop stop-color="#DABD55"/>
<stop offset="1" stop-color="#F78533"/>
</linearGradient>
<linearGradient id="paint1_linear_161_738" x1="2.5" y1="1.78674" x2="20.2765" y2="5.74528" gradientUnits="userSpaceOnUse">
<stop stop-color="#DABD55"/>
<stop offset="1" stop-color="#F78533"/>
</linearGradient>
</defs>
</svg>
